<svg xmlns="http://www.w3.org/2000/svg" viewBox="0 0 128 160" role="img" aria-labelledby="title desc">
  <title id="title">Nanjing University inspired crest</title>
  <desc id="desc">A purple and gold crest mark inspired by Nanjing University.</desc>
  <path d="M8 8c18 9 37 11 56 3 19 8 38 6 56-3v88c0 25-18 45-56 56C26 141 8 121 8 96V8z" fill="#6f005d"/>
  <path d="M18 22c14 6 30 6 46 0 16 6 32 6 46 0v70c0 21-14 37-46 48-32-11-46-27-46-48V22z" fill="none" stroke="#c8a45d" stroke-width="5"/>
  <circle cx="64" cy="44" r="18" fill="none" stroke="#c8a45d" stroke-width="5"/>
  <path d="M64 23v42M44 44h40M52 34c8 6 16 6 24 0M52 54c8-6 16-6 24 0" fill="none" stroke="#c8a45d" stroke-width="4" stroke-linecap="round"/>
  <path d="M64 72l9 23h-7l15 27-17-10-17 10 15-27h-7l9-23z" fill="#c8a45d"/>
  <text x="64" y="134" text-anchor="middle" fill="#c8a45d" font-family="Georgia, serif" font-size="16" font-weight="800">1902</text>
</svg>
